<svg xmlns="http://www.w3.org/2000/svg" viewBox="0 0 500 520" width="500" height="520">
  <defs>
    <radialGradient id="bg" cx="50%" cy="40%" r="60%">
      <stop offset="0%" stop-color="#fdfcfa"/>
      <stop offset="100%" stop-color="#f0ebe3"/>
    </radialGradient>
    <radialGradient id="dialGrad" cx="50%" cy="50%" r="50%">
      <stop offset="0%" stop-color="#faf0eb" stop-opacity="1"/>
      <stop offset="100%" stop-color="#faf0eb" stop-opacity="0.85"/>
    </radialGradient>
    <linearGradient id="caseGrad" x1="0%" y1="0%" x2="100%" y2="100%">
      <stop offset="0%" stop-color="#c9a0a0" stop-opacity="1"/>
      <stop offset="50%" stop-color="#c9a0a0" stop-opacity="0.9"/>
      <stop offset="100%" stop-color="#c9a0a0" stop-opacity="0.7"/>
    </linearGradient>
    <filter id="shadow" x="-20%" y="-20%" width="140%" height="140%">
      <feDropShadow dx="0" dy="8" stdDeviation="12" flood-color="#6b5b4e" flood-opacity="0.12"/>
    </filter>
  </defs>
  <rect width="500" height="520" fill="url(#bg)"/>
  
    <path d="M175 310 Q170 360 168 400 L168 480 Q170 500 200 500 L300 500 Q330 500 332 480 L332 400 Q330 360 325 310 Z" fill="#d4c4b8" opacity="0.9"/>
    <path d="M175 120 Q170 70 168 30 L168 10 Q170 0 200 0 L300 0 Q330 0 332 10 L332 30 Q330 70 325 120 Z" fill="#d4c4b8" opacity="0.9"/>
    <line x1="185" y1="350" x2="315" y2="350" stroke="#000" stroke-width="0.5" opacity="0.15"/>
    <line x1="185" y1="380" x2="315" y2="380" stroke="#000" stroke-width="0.5" opacity="0.15"/>
    <line x1="185" y1="60" x2="315" y2="60" stroke="#000" stroke-width="0.5" opacity="0.15"/>
  
  <g filter="url(#shadow)">
    <circle cx="250" cy="215" r="108" fill="url(#caseGrad)" stroke="#d4b896" stroke-width="4"/>
    <circle cx="250" cy="215" r="98" fill="url(#dialGrad)" stroke="#d4b896" stroke-width="1" opacity="0.5"/>
    
    <line x1="250" y1="133" x2="250" y2="121" stroke="#a08080" stroke-width="2.5" stroke-linecap="round"/><circle cx="295" cy="137.05771365940052" r="1.5" fill="#a08080" opacity="0.6"/><circle cx="327.9422863405995" cy="170" r="1.5" fill="#a08080" opacity="0.6"/><line x1="332" y1="215" x2="344" y2="215" stroke="#a08080" stroke-width="2.5" stroke-linecap="round"/><circle cx="327.9422863405995" cy="260" r="1.5" fill="#a08080" opacity="0.6"/><circle cx="295" cy="292.9422863405995" r="1.5" fill="#a08080" opacity="0.6"/><line x1="250" y1="297" x2="250" y2="309" stroke="#a08080" stroke-width="2.5" stroke-linecap="round"/><circle cx="205.00000000000003" cy="292.9422863405995" r="1.5" fill="#a08080" opacity="0.6"/><circle cx="172.05771365940052" cy="260" r="1.5" fill="#a08080" opacity="0.6"/><line x1="168" y1="215" x2="156" y2="215" stroke="#a08080" stroke-width="2.5" stroke-linecap="round"/><circle cx="172.05771365940052" cy="170" r="1.5" fill="#a08080" opacity="0.6"/><circle cx="204.99999999999994" cy="137.05771365940052" r="1.5" fill="#a08080" opacity="0.6"/>
    <line x1="250" y1="215" x2="250" y2="155" stroke="#8b6b6b" stroke-width="3" stroke-linecap="round"/>
    <line x1="250" y1="215" x2="290" y2="195" stroke="#8b6b6b" stroke-width="2" stroke-linecap="round"/>
    <line x1="250" y1="215" x2="255" y2="175" stroke="#8b6b6b" stroke-width="1.5" stroke-linecap="round" opacity="0.8"/>
    <circle cx="250" cy="215" r="5" fill="#d4b896"/>
    <circle cx="250" cy="215" r="2" fill="#8b6b6b"/>
    <text x="250" y="295" text-anchor="middle" font-family="Georgia, serif" font-size="9" fill="#a08080" opacity="0.7" letter-spacing="3">CHRONOS</text>
    <circle cx="250" cy="215" r="108" fill="none" stroke="white" stroke-width="1" opacity="0.15"/>
  </g>
</svg>